<?xml version="1.0" encoding="UTF-8" standalone="no"?>
<svg
   id="eWSLi8rbaTl1"
   viewBox="0 0 700 400"
   shape-rendering="geometricPrecision"
   text-rendering="geometricPrecision"
   width="700"
   height="400"
   style="background-color:#06021d"
   version="1.1"
   sodipodi:docname="background.svg"
   inkscape:version="1.4 (e7c3feb100, 2024-10-09)"
   xmlns:inkscape="http://www.inkscape.org/namespaces/inkscape"
   xmlns:sodipodi="http://sodipodi.sourceforge.net/DTD/sodipodi-0.dtd"
   xmlns="http://www.w3.org/2000/svg"
   xmlns:svg="http://www.w3.org/2000/svg">
  <sodipodi:namedview
     id="namedview1"
     pagecolor="#ffffff"
     bordercolor="#000000"
     borderopacity="0.25"
     inkscape:showpageshadow="2"
     inkscape:pageopacity="0.0"
     inkscape:pagecheckerboard="0"
     inkscape:deskcolor="#d1d1d1"
     inkscape:zoom="2.825"
     inkscape:cx="350.0885"
     inkscape:cy="200"
     inkscape:window-width="2560"
     inkscape:window-height="1338"
     inkscape:window-x="0"
     inkscape:window-y="0"
     inkscape:window-maximized="1"
     inkscape:current-layer="eWSLi8rbaTl1" />
  <style
     id="style1"><![CDATA[#eWSLi8rbaTl2 {animation: eWSLi8rbaTl2_s_do 12000ms linear infinite normal forwards}@keyframes eWSLi8rbaTl2_s_do { 0% {stroke-dashoffset: 0} 100% {stroke-dashoffset: 300}} #eWSLi8rbaTl3 {animation: eWSLi8rbaTl3_s_do 12000ms linear infinite normal forwards}@keyframes eWSLi8rbaTl3_s_do { 0% {stroke-dashoffset: 0} 100% {stroke-dashoffset: 360}} #eWSLi8rbaTl4 {animation: eWSLi8rbaTl4_s_do 12000ms linear infinite normal forwards}@keyframes eWSLi8rbaTl4_s_do { 0% {stroke-dashoffset: 0} 100% {stroke-dashoffset: 500}} #eWSLi8rbaTl5 {animation: eWSLi8rbaTl5_s_do 12000ms linear infinite normal forwards}@keyframes eWSLi8rbaTl5_s_do { 0% {stroke-dashoffset: 0} 100% {stroke-dashoffset: 360}}]]></style>
  <defs
     id="defs1">
    <linearGradient
       id="eWSLi8rbaTl2-stroke"
       x1="0"
       y1="0.5"
       x2="1"
       y2="0.5"
       spreadMethod="pad"
       gradientUnits="objectBoundingBox"
       gradientTransform="translate(0 0)">
      <stop
         id="eWSLi8rbaTl2-stroke-0"
         offset="0"
         stop-color="#0036a4"
         style="stop-color:#ffbcad;stop-opacity:1;" />
      <stop
         id="eWSLi8rbaTl2-stroke-1"
         offset="0.49000001"
         stop-color="#6a2364"
         style="stop-color:#e57676;stop-opacity:1;" />
      <stop
         id="eWSLi8rbaTl2-stroke-2"
         offset="1"
         stop-color="#4cceff"
         style="stop-color:#ffd9a1;stop-opacity:1;" />
    </linearGradient>
    <linearGradient
       id="eWSLi8rbaTl3-stroke"
       x1="0"
       y1="0.5"
       x2="1"
       y2="0.5"
       spreadMethod="pad"
       gradientUnits="objectBoundingBox"
       gradientTransform="translate(0 0)">
      <stop
         id="eWSLi8rbaTl3-stroke-0"
         offset="0"
         stop-color="#fff"
         style="stop-color:#ecece5;stop-opacity:1;" />
      <stop
         id="eWSLi8rbaTl3-stroke-1"
         offset="0.50759804"
         stop-color="#359fad"
         style="stop-color:#e5beaa;stop-opacity:1;" />
      <stop
         id="eWSLi8rbaTl3-stroke-2"
         offset="1"
         stop-color="#fff"
         style="stop-color:#e0d9bb;stop-opacity:1;" />
    </linearGradient>
    <linearGradient
       id="eWSLi8rbaTl4-stroke"
       x1="0"
       y1="0.5"
       x2="1"
       y2="0.5"
       spreadMethod="pad"
       gradientUnits="objectBoundingBox"
       gradientTransform="translate(0 0)">
      <stop
         id="eWSLi8rbaTl4-stroke-0"
         offset="0"
         stop-color="#ae3bd4"
         style="stop-color:#d9d97f;stop-opacity:1;" />
      <stop
         id="eWSLi8rbaTl4-stroke-1"
         offset="0.47999999"
         stop-color="#2bc4c3"
         style="stop-color:#ecde8f;stop-opacity:1;" />
      <stop
         id="eWSLi8rbaTl4-stroke-2"
         offset="1"
         stop-color="#ff00f6"
         style="stop-color:#ff715c;stop-opacity:1;" />
    </linearGradient>
    <radialGradient
       id="eWSLi8rbaTl5-stroke"
       cx="0"
       cy="0"
       r="0.5"
       spreadMethod="pad"
       gradientUnits="objectBoundingBox"
       gradientTransform="translate(0.5 0.5)">
      <stop
         id="eWSLi8rbaTl5-stroke-0"
         offset="0"
         stop-color="rgba(34,56,133,0.52)"
         style="stop-color:#d4b5b5;stop-opacity:1;" />
      <stop
         id="eWSLi8rbaTl5-stroke-1"
         offset="1"
         stop-color="rgba(255,176,195,0.77)"
         style="stop-color:#f8ca6b;stop-opacity:1;" />
    </radialGradient>
  </defs>
  <path
     id="eWSLi8rbaTl2"
     d="M 60.541022,192.775 C 21.003392,149.13277 93.618712,74.10143 146.85856,55.491904 c 25.3958,-8.876883 61.36912,-18.889738 84.46125,-0.683004 42.51693,33.522007 12.61309,96.21356 -20.41921,126.35509 -13.57834,12.39006 -44.52129,36.55145 -69.61091,27.32002 -33.10386,-12.18018 -16.82302,-54.56911 -5.56887,-73.08106 24.07487,-39.600757 95.40025,-87.47281 159.64103,-71.715049 82.36197,20.202746 -34.85865,121.117469 5.56887,152.992109 5.98743,4.72073 20.19156,5.76841 27.84436,5.46401 79.76103,-3.17267 61.15669,-66.68425 111.37746,-71.03205 39.01697,-3.37784 25.56595,56.86325 91.88641,71.03205 51.28127,10.95581 113.4713,-35.49658 103.02415,-72.39805 -11.11016,-39.24339 -64.62871,-56.266561 -100.23971,-19.80701 -63.22493,64.73146 -24.45765,130.03496 -131.79667,180.99512 -33.18273,15.7538 -73.71987,28.09163 -113.23375,30.73502 -67.50261,4.51579 -159.24962,-31.31107 -119.73078,-89.47306"
     opacity="0.16"
     fill="none"
     stroke="url(#eWSLi8rbaTl2-stroke)"
     stroke-width="40"
     stroke-linecap="round"
     stroke-dasharray="0.01, 300"
     sodipodi:nodetypes="cssssssssssssssc" />
  <path
     id="eWSLi8rbaTl3"
     d="M548.836753,44.624992c26.916212-47.425639,99.388234-12.558714,103.049491,22.466344c3.251243,31.102646-70.55417,52.435347-66.826483,90.839065.879618,9.062024,10.329678,16.183054,16.706615,23.222019c22.659712,25.01212,36.15069,53.012162,25.059934,83.326063-6.256675,17.101086-71.228523,57.873574-88.173827,41.663027-16.765407-16.038445,14.01447-20.909212,28.772513-18.441016c44.400398,7.42573,39.199862,48.178358,11.137747,65.568042-18.861882,11.68843-40.657433,17.627774-64.970182,18.441016-12.759071.426775-28.762073.008452-38.05397-7.513002-14.587089-11.807732-11.245004-34.497301-15.778476-49.176038-8.945896-28.965543-56.379513-49.881526-94.670845-41.663027-50.048296,10.741896-52.094214,78.458176-20.419205,101.76707c15.367315,11.308446,43.972474,9.148501,51.048007-7.513002c2.032339-4.785771-3.04294-10.393113-5.568868-14.343009-15.043565-23.524194-33.730117-41.728469-71.467212-43.712031-33.131218-1.741464-71.203717,3.688551-103.024153,10.24501-46.009639,9.480073-118.415138,48.817966-164.281757,18.441016-30.66551-20.309424,12.75807-68.343305,39.91026-79.911059c32.212799-13.723741,72.026579-3.504685,106.736732-6.147003c52.230596-3.976064,154.450764-47.459715,159.641028-89.473065c2.788051-22.568321-26.790438-36.532239-53.832435-40.297027-66.712859-9.287755-138.894203-1.825607-204.192017-19.124012-38.477878-10.193385-22.449204-66.152738,9.281458-77.179052C202.82374,-6.519584,308.91142,55.028095,392.933642,79.385358c32.624072,9.457415,97.636197-12.294022,85.5703-86.837121"
     fill="none"
     stroke="url(#eWSLi8rbaTl3-stroke)"
     stroke-width="2"
     stroke-linecap="round"
     stroke-dasharray="0.01,72"
     inkscape:label="eWSLi8rbaTl3" />
  <path
     id="eWSLi8rbaTl4"
     d="M24.64077,109.435733c9.77732-43.169398,95.29382-75.504329,126.227798-37.565028c28.480004,34.929606-79.556979,105.03965-48.263567,133.185096c9.979064,8.975215,99.164752-4.578146,116.018189-5.464007c93.293239-4.903741,184.235846,9.270784,259.880752,51.908037c26.810744,15.111878,73.176735,45.294034,53.832447,73.764048-7.509408,11.051993-27.178976,16.53514-41.766549,20.490012-72.26474,19.591865-195.886634,17.364906-222.754932-49.859033-8.777012-21.959907-7.219284-41.875131,11.137747-60.787039c36.960368-38.077569,109.24079-44.427048,143.862563-82.643059c45.553107-50.282182-10.10387-104.320783-87.245677-99.718067-42.685767,2.546875-79.978052,61.797144-30.628802,76.496056c68.896959,20.521288,142.09535-9.350216,213.473474,30.735022c43.562291,24.464147,12.890189,75.964408,54.760586,100.401071c23.011575,13.43016,92.927235,11.470796,80.748659,45.07803-20.769684,57.314699-107.56676,28.154064-159.641028,20.490012-63.418102-9.333576-87.982399-26.344666-135.509244-55.32304-16.857656-10.278555-35.484888-18.599492-51.048007-30.052018-14.029983-10.324335-24.884098-23.547639-42.694699-30.735022-32.915602-13.282934-81.457256-4.09275-112.305611,8.87901-107.102691,45.03677-54.968135,97.087033,39.91026,113.37808c52.629079,9.03665,163.631469-6.14701,185.91444,89.462991"
     opacity="0.2"
     fill="none"
     stroke="url(#eWSLi8rbaTl4-stroke)"
     stroke-width="20"
     stroke-linecap="round"
     stroke-dasharray="0.01,500" />
  <path
     id="eWSLi8rbaTl5"
     d="m 26.29082,129.84486 c 0,-15.46582 7.021983,-31.880028 10.209597,-47.127036 3.675859,-17.58235 -1.283208,-51.871363 15.778476,-65.56805 7.254969,-5.824098 10.187693,-4.438835 21.347344,-4.781003 44.095413,-1.352034 75.299063,40.167369 79.820523,67.617046 1.68461,10.227286 -7.82494,56.033873 0,59.421043 46.3957,20.08323 166.20272,-38.33 186.55725,28.00302 16.76463,54.63395 -138.80722,98.86578 -184.70096,120.89108 -12.84216,6.16319 -58.92052,25.24896 -51.04801,41.66303 12.51804,26.09992 135.02659,10.70086 161.49733,0.683 11.65741,-4.41175 21.73103,-12.1912 30.6288,-19.12401 4.35867,-3.39612 8.74746,-6.77284 12.99403,-10.24501 1.03484,-0.84612 2.48107,-3.84823 2.78444,-2.732 2.48778,9.15348 -67.92941,74.69453 -32.48509,79.91106 27.16976,3.99871 71.61991,-44.94169 80.74866,-56.00604 41.23762,-49.9813 50.82073,-106.47479 80.74866,-159.13911 9.53659,-16.78158 28.86124,-53.79232 57.54503,-59.42104 39.20986,-7.694295 46.88703,27.19233 50.11985,47.81003 2.46029,15.6907 3.50317,32.73844 1.85629,48.49303 -2.88494,27.59856 -40.40855,109.49441 -6.49702,129.7701 12.52959,7.49142 29.33691,7.79342 44.55099,6.147 65.55053,-7.09369 40.13982,-69.39539 71.4672,-99.03507 10.72561,-10.14779 32.65497,15.334 24.13179,34.15002"
     fill="none"
     stroke="url(#eWSLi8rbaTl5-stroke)"
     stroke-width="4"
     stroke-linecap="round"
     stroke-dasharray="0.01, 72"
     inkscape:label="eWSLi8rbaTl5"
     sodipodi:nodetypes="csscssssssssssssssssssc" />
</svg>
